<?xml version="1.0" standalone="no"?>
<!DOCTYPE svg PUBLIC "-//W3C//DTD SVG 20010904//EN"
 "http://www.w3.org/TR/2001/REC-SVG-20010904/DTD/svg10.dtd">
<svg version="1.0" xmlns="http://www.w3.org/2000/svg"
 width="512.000000pt" height="512.000000pt" viewBox="0 0 512.000000 512.000000"
 preserveAspectRatio="xMidYMid meet">

<g transform="translate(0.000000,512.000000) scale(0.100000,-0.100000)"
fill="#000000" stroke="none">
<path d="M0 2560 l0 -2560 2560 0 2560 0 0 2560 0 2560 -2560 0 -2560 0 0
-2560z m2760 2229 c424 -38 872 -218 1190 -479 92 -75 261 -242 331 -327 370
-448 555 -1052 498 -1629 -41 -425 -214 -854 -478 -1184 -71 -90 -251 -270
-341 -343 -390 -315 -905 -497 -1405 -497 -487 0 -991 173 -1375 473 -92 72
-260 237 -348 342 -343 409 -531 966 -508 1506 35 838 523 1575 1283 1936 351
167 759 238 1153 202z"/>
</g>
</svg>
